<svg version="1.0" xmlns="http://www.w3.org/2000/svg"
 viewBox="60 178 390 135"
 preserveAspectRatio="xMidYMid meet">

<g transform="translate(0.000000,500.000000) scale(0.100000,-0.100000)"
fill="#000000" stroke="none">
<path d="M650 3165 c0 -3 20 -30 44 -59 61 -75 79 -136 74 -245 -5 -96 -18
-129 -80 -203 l-39 -48 438 0 438 0 53 25 c102 47 155 133 155 250 0 117 -58
210 -163 259 -43 20 -62 21 -482 24 -241 2 -438 0 -438 -3z"/>
<path d="M3192 2964 c-23 -9 -56 -30 -74 -47 -63 -64 -63 -58 -66 -541 -4
-496 -12 -457 81 -387 67 51 123 71 198 71 73 0 139 -24 212 -78 31 -23 59
-42 62 -42 3 0 4 202 3 449 l-3 449 -30 43 c-18 26 -50 53 -80 68 -42 22 -64
26 -155 28 -75 2 -117 -2 -148 -13z"/>
<path d="M3891 2965 c-24 -8 -59 -28 -77 -46 -62 -60 -64 -75 -64 -551 0 -235
2 -428 5 -428 3 0 26 16 51 36 70 53 121 76 185 81 83 8 148 -11 228 -68 39
-27 73 -49 76 -49 3 0 5 188 5 418 0 470 -3 494 -65 557 -21 21 -55 40 -87 50
-63 18 -197 19 -257 0z"/>
<path d="M2031 2953 c-69 -24 -126 -88 -150 -168 -19 -61 -21 -92 -21 -330 0
-238 2 -269 21 -330 16 -52 31 -77 65 -110 76 -75 80 -75 566 -75 l428 0 -30
53 c-104 177 -143 361 -121 569 17 156 40 227 129 401 2 4 -187 7 -420 6 -356
0 -430 -3 -467 -16z"/>
<path d="M692 2433 c60 -78 78 -128 78 -216 0 -91 -21 -151 -77 -219 l-43 -53
426 -3 c268 -1 440 2 464 8 235 63 264 393 46 508 l-51 27 -443 3 -444 3 44
-58z"/>
</g>
</svg>
